<svg version="1.1" id="Layer_1" xmlns="http://www.w3.org/2000/svg" xmlns:xlink="http://www.w3.org/1999/xlink" x="0px" y="0px"
	 width="100%" viewBox="0 0 363 360" enable-background="new 0 0 363 360" xml:space="preserve">
<path fill="#010101" opacity="1.000000" stroke="none" 
	d="
M65.000000,361.000000 
	C43.673389,361.000000 22.346777,361.000000 1.015123,361.000000 
	C1.010082,241.044525 1.010082,121.089058 1.010082,1.066795 
	C121.917313,1.066795 242.834686,1.066795 363.876038,1.066795 
	C363.876038,120.879425 363.876038,240.759018 363.876038,361.000000 
	C283.979462,361.000000 203.958389,361.000000 123.265320,360.570282 
	C122.593437,328.832611 122.754745,297.523102 122.445320,266.218201 
	C122.389496,260.570587 121.118866,254.680878 119.185394,249.346466 
	C104.851837,209.800613 90.205788,170.368057 75.665352,130.897141 
	C72.373688,121.961700 69.111221,113.015503 65.835304,104.074249 
	C64.800003,106.120064 64.799644,107.916451 64.800056,109.712837 
	C64.810799,156.175430 64.803596,202.638031 64.838120,249.100616 
	C64.865829,286.400452 64.944145,323.700195 65.000000,361.000000 
M110.364296,184.476379 
	C111.147636,185.992111 111.930969,187.507843 113.113884,189.553452 
	C113.344635,190.387009 113.575378,191.220581 113.394043,192.363907 
	C113.800278,192.919617 114.206512,193.475342 114.996025,194.643997 
	C115.604805,196.445862 116.213593,198.247742 116.410973,200.364044 
	C116.824432,200.918808 117.237892,201.473587 118.051765,202.625717 
	C118.656242,204.429993 119.260719,206.234253 119.443878,208.347809 
	C119.852173,208.907516 120.260468,209.467239 121.066071,210.653976 
	C121.976204,213.454636 122.886330,216.255280 123.357216,219.483215 
	C124.134529,220.997269 124.911842,222.511307 126.067963,224.567520 
	C126.308372,225.397690 126.548790,226.227875 126.382607,227.372910 
	C126.794334,227.925522 127.206062,228.478134 128.003189,229.642456 
	C128.613724,231.443771 129.224243,233.245071 129.420898,235.358231 
	C129.830109,235.914978 130.239334,236.471710 131.037674,237.660553 
	C131.980606,240.453171 132.923523,243.245789 133.440109,246.348511 
	C133.857361,246.907440 134.274612,247.466370 135.087372,248.557495 
	C135.332565,249.388092 135.577744,250.218689 135.411697,251.364014 
	C135.825043,251.918747 136.238388,252.473495 137.036133,253.639038 
	C137.622330,255.444672 138.208511,257.250305 138.352936,259.520905 
	C139.457687,262.022949 140.562454,264.525024 142.046097,267.570496 
	C142.294830,268.399292 142.543564,269.228058 142.388809,270.373169 
	C142.800079,270.925598 143.211365,271.478027 144.015060,272.638184 
	C144.614044,274.442810 145.213013,276.247437 145.361832,278.512146 
	C146.478210,281.015961 147.594574,283.519775 149.095673,286.560913 
	C149.324738,287.393890 149.553802,288.226868 149.377853,289.379608 
	C149.801910,289.929260 150.225967,290.478943 151.062027,291.618591 
	C151.667740,293.424011 152.273468,295.229401 152.452362,297.342896 
	C152.864288,297.903748 153.276199,298.464569 154.121201,299.706757 
	C154.801346,302.592987 156.512192,303.483398 159.539520,303.442810 
	C174.863953,303.237396 190.193268,303.171021 205.517502,303.347351 
	C208.936142,303.386688 210.425064,302.325134 211.598907,299.149994 
	C237.323074,229.568375 263.158264,160.027771 288.978302,90.481621 
	C292.827850,80.112923 296.707977,69.755592 300.881714,58.568127 
	C298.078339,58.568127 296.127350,58.568676 294.176331,58.568043 
	C280.349396,58.563568 266.516052,58.795712 252.699020,58.422783 
	C248.009460,58.296207 246.175430,59.867996 244.640701,64.164986 
	C229.815384,105.673630 214.740662,147.093231 199.729019,188.535309 
	C194.605286,202.680206 189.458374,216.816711 184.026001,231.772049 
	C183.396103,230.349304 183.052872,229.684769 182.800323,228.987411 
	C177.421219,214.134613 172.058792,199.275742 166.680145,184.422775 
	C152.297150,144.704620 137.922516,104.983398 123.486412,65.284546 
	C122.596642,62.837708 121.202965,60.574116 119.731689,57.664772 
	C117.805756,57.874077 115.879822,58.083382 113.062614,58.570908 
	C103.722267,58.495983 94.381927,58.421055 84.701347,57.697273 
	C81.118912,57.897644 77.536476,58.098019 73.067055,58.567749 
	C70.535751,58.567749 68.004448,58.567749 65.332840,58.567749 
	C65.553772,60.137463 65.688309,61.093315 65.364693,62.549374 
	C66.998405,65.183220 63.894047,69.879715 69.498108,71.351555 
	C69.606773,71.917488 69.715439,72.483429 69.409828,73.362831 
	C69.824875,73.917923 70.239929,74.473007 71.039246,75.569649 
	C71.288246,76.399124 71.537239,77.228592 71.354851,78.489273 
	C72.126060,80.001816 72.897263,81.514359 74.052528,83.633713 
	C74.635414,85.440590 75.218292,87.247467 75.354622,89.516853 
	C76.468697,92.019516 77.582771,94.522179 79.077156,97.565697 
	C79.321182,98.394669 79.565208,99.223648 79.369797,100.477669 
	C80.133575,101.994286 80.897346,103.510910 82.035088,105.572639 
	C82.275368,106.403709 82.515640,107.234772 82.360672,108.380554 
	C82.761688,108.931786 83.162704,109.483025 83.960114,110.676476 
	C85.928986,116.130371 87.897858,121.584267 89.444046,127.349365 
	C89.858620,127.908035 90.273193,128.466690 91.071716,129.631165 
	C91.667030,131.434189 92.262352,133.237198 92.404152,135.455200 
	C93.159798,136.979080 93.915443,138.502960 95.072426,140.622330 
	C95.656464,142.431274 96.240501,144.240219 96.375847,146.471649 
	C97.158035,147.988708 97.940224,149.505753 99.110641,151.558640 
	C99.340897,152.390869 99.571152,153.223114 99.391502,154.369797 
	C99.805130,154.923126 100.218758,155.476456 101.035645,156.629333 
	C101.634651,158.435211 102.233658,160.241104 102.419739,162.358795 
	C102.827240,162.915497 103.234741,163.472198 104.029755,164.656601 
	C104.958557,167.454712 105.887352,170.252823 106.373550,173.474731 
	C107.143875,174.991730 107.914200,176.508728 109.078819,178.625519 
	C109.656403,180.434525 110.233986,182.243515 110.364296,184.476379 
z"/>
<path fill="#FCFCFC" opacity="1.000000" stroke="none" 
	d="
M65.468658,361.000000 
	C64.944145,323.700195 64.865829,286.400452 64.838120,249.100616 
	C64.803596,202.638031 64.810799,156.175430 64.800056,109.712837 
	C64.799644,107.916451 64.800003,106.120064 65.835304,104.074249 
	C69.111221,113.015503 72.373688,121.961700 75.665352,130.897141 
	C90.205788,170.368057 104.851837,209.800613 119.185394,249.346466 
	C121.118866,254.680878 122.389496,260.570587 122.445320,266.218201 
	C122.754745,297.523102 122.593437,328.832611 122.796661,360.570282 
	C103.979103,361.000000 84.958214,361.000000 65.468658,361.000000 
z"/>
<path fill="#FDFDFC" opacity="1.000000" stroke="none" 
	d="
M71.786232,78.058067 
	C71.537239,77.228592 71.288246,76.399124 70.889221,75.014771 
	C70.434166,73.989723 70.129135,73.519539 69.824112,73.049362 
	C69.715439,72.483429 69.606773,71.917488 69.286621,70.786850 
	C67.991035,67.497818 66.906937,64.773491 65.822838,62.049168 
	C65.688309,61.093315 65.553772,60.137463 65.332840,58.567749 
	C68.004448,58.567749 70.535751,58.567749 73.948242,58.594856 
	C78.233475,58.530014 81.637527,58.438068 85.041580,58.346127 
	C94.381927,58.421055 103.722267,58.495983 113.922592,58.590271 
	C116.536301,58.481514 118.290016,58.353390 120.043739,58.225262 
	C121.202965,60.574116 122.596642,62.837708 123.486412,65.284546 
	C137.922516,104.983398 152.297150,144.704620 166.680145,184.422775 
	C172.058792,199.275742 177.421219,214.134613 182.800323,228.987411 
	C183.052872,229.684769 183.396103,230.349304 184.026001,231.772049 
	C189.458374,216.816711 194.605286,202.680206 199.729019,188.535309 
	C214.740662,147.093231 229.815384,105.673630 244.640701,64.164986 
	C246.175430,59.867996 248.009460,58.296207 252.699020,58.422783 
	C266.516052,58.795712 280.349396,58.563568 294.176331,58.568043 
	C296.127350,58.568676 298.078339,58.568127 300.881714,58.568127 
	C296.707977,69.755592 292.827850,80.112923 288.978302,90.481621 
	C263.158264,160.027771 237.323074,229.568375 211.598907,299.149994 
	C210.425064,302.325134 208.936142,303.386688 205.517502,303.347351 
	C190.193268,303.171021 174.863953,303.237396 159.539520,303.442810 
	C156.512192,303.483398 154.801346,302.592987 153.950897,299.081421 
	C153.480133,297.982300 153.179657,297.508575 152.879196,297.034821 
	C152.273468,295.229401 151.667740,293.424011 150.888824,291.039276 
	C150.404694,289.993256 150.093781,289.526550 149.782867,289.059845 
	C149.553802,288.226868 149.324738,287.393890 148.934753,285.928528 
	C147.786560,282.881470 146.799271,280.466766 145.811981,278.052063 
	C145.213013,276.247437 144.614044,274.442810 143.853577,272.052490 
	C143.392166,270.996826 143.092224,270.526825 142.792282,270.056854 
	C142.543564,269.228058 142.294830,268.399292 141.877640,266.935913 
	C140.737701,263.886230 139.766205,261.471069 138.794708,259.055939 
	C138.208511,257.250305 137.622330,255.444672 136.885529,253.050659 
	C136.430939,251.991287 136.126938,251.520294 135.822937,251.049286 
	C135.577744,250.218689 135.332565,249.388092 134.934174,248.005493 
	C134.476151,246.981781 134.171295,246.510101 133.866455,246.038406 
	C132.923523,243.245789 131.980606,240.453171 130.888458,237.062500 
	C130.437759,235.991760 130.136261,235.519073 129.834763,235.046387 
	C129.224243,233.245071 128.613724,231.443771 127.850327,229.054504 
	C127.394722,227.997040 127.091965,227.527542 126.789207,227.058044 
	C126.548790,226.227875 126.308372,225.397690 125.909943,223.954636 
	C125.100105,221.913147 124.448288,220.484543 123.796463,219.055939 
	C122.886330,216.255280 121.976204,213.454636 120.909607,210.056915 
	C120.457153,208.986069 120.161171,208.512299 119.865189,208.038528 
	C119.260719,206.234253 118.656242,204.429993 117.888794,202.043762 
	C117.424667,200.991074 117.123520,200.520340 116.822372,200.049606 
	C116.213593,198.247742 115.604805,196.445862 114.846161,194.056000 
	C114.399567,192.996704 114.102852,192.525421 113.806129,192.054138 
	C113.575378,191.220581 113.344635,190.387009 112.939705,188.945770 
	C112.114204,186.909576 111.462883,185.481049 110.811569,184.052521 
	C110.233986,182.243515 109.656403,180.434525 108.904579,177.984253 
	C108.092278,175.912308 107.454208,174.481613 106.816147,173.050934 
	C105.887352,170.252823 104.958557,167.454712 103.877724,164.060059 
	C103.428017,162.991348 103.130341,162.519165 102.832664,162.046982 
	C102.233658,160.241104 101.634651,158.435211 100.868179,156.046997 
	C100.400940,154.994904 100.101166,154.525116 99.801399,154.055344 
	C99.571152,153.223114 99.340897,152.390869 98.946838,150.947876 
	C98.130203,148.907791 97.477364,147.478485 96.824532,146.049164 
	C96.240501,144.240219 95.656464,142.431274 94.895996,139.983475 
	C94.098938,137.909821 93.478310,136.475021 92.857674,135.040222 
	C92.262352,133.237198 91.667030,131.434189 90.930222,129.043640 
	C90.481392,127.983452 90.174065,127.510803 89.866730,127.038162 
	C87.897858,121.584267 85.928986,116.130371 83.798065,110.075485 
	C83.342644,109.004951 83.049278,108.535400 82.755920,108.065842 
	C82.515640,107.234772 82.275368,106.403709 81.878525,104.958923 
	C81.084389,102.914337 80.446815,101.483482 79.809242,100.052620 
	C79.565208,99.223648 79.321182,98.394669 78.907982,96.931961 
	C77.759598,93.883591 76.780388,91.468964 75.801178,89.054337 
	C75.218292,87.247467 74.635414,85.440590 73.885498,82.989166 
	C73.074387,80.915764 72.430313,79.486916 71.786232,78.058067 
z"/>
<path fill="#121212" opacity="1.000000" stroke="none" 
	d="
M84.871460,58.021698 
	C81.637527,58.438068 78.233475,58.530014 74.391731,58.460175 
	C77.536476,58.098019 81.118912,57.897644 84.871460,58.021698 
z"/>
<path fill="#121212" opacity="1.000000" stroke="none" 
	d="
M65.593765,62.299271 
	C66.906937,64.773491 67.991035,67.497818 69.056244,70.603928 
	C63.894047,69.879715 66.998405,65.183220 65.593765,62.299271 
z"/>
<path fill="#121212" opacity="1.000000" stroke="none" 
	d="
M75.577896,89.285599 
	C76.780388,91.468964 77.759598,93.883591 78.717827,96.661530 
	C77.582771,94.522179 76.468697,92.019516 75.577896,89.285599 
z"/>
<path fill="#121212" opacity="1.000000" stroke="none" 
	d="
M138.573822,259.288422 
	C139.766205,261.471069 140.737701,263.886230 141.688202,266.664215 
	C140.562454,264.525024 139.457687,262.022949 138.573822,259.288422 
z"/>
<path fill="#121212" opacity="1.000000" stroke="none" 
	d="
M145.586914,278.282104 
	C146.799271,280.466766 147.786560,282.881470 148.742401,285.659882 
	C147.594574,283.519775 146.478210,281.015961 145.586914,278.282104 
z"/>
<path fill="#121212" opacity="1.000000" stroke="none" 
	d="
M119.887711,57.945015 
	C118.290016,58.353390 116.536301,58.481514 114.368233,58.451164 
	C115.879822,58.083382 117.805756,57.874077 119.887711,57.945015 
z"/>
<path fill="#121212" opacity="1.000000" stroke="none" 
	d="
M123.576843,219.269577 
	C124.448288,220.484543 125.100105,221.913147 125.720535,223.683563 
	C124.911842,222.511307 124.134529,220.997269 123.576843,219.269577 
z"/>
<path fill="#121212" opacity="1.000000" stroke="none" 
	d="
M110.587929,184.264450 
	C111.462883,185.481049 112.114204,186.909576 112.739914,188.680847 
	C111.930969,187.507843 111.147636,185.992111 110.587929,184.264450 
z"/>
<path fill="#121212" opacity="1.000000" stroke="none" 
	d="
M106.594849,173.262833 
	C107.454208,174.481613 108.092278,175.912308 108.707428,177.684357 
	C107.914200,176.508728 107.143875,174.991730 106.594849,173.262833 
z"/>
<path fill="#121212" opacity="1.000000" stroke="none" 
	d="
M96.600189,146.260406 
	C97.477364,147.478485 98.130203,148.907791 98.752731,150.679962 
	C97.940224,149.505753 97.158035,147.988708 96.600189,146.260406 
z"/>
<path fill="#121212" opacity="1.000000" stroke="none" 
	d="
M92.630913,135.247711 
	C93.478310,136.475021 94.098938,137.909821 94.695335,139.685730 
	C93.915443,138.502960 93.159798,136.979080 92.630913,135.247711 
z"/>
<path fill="#121212" opacity="1.000000" stroke="none" 
	d="
M79.589523,100.265144 
	C80.446815,101.483482 81.084389,102.914337 81.691544,104.686363 
	C80.897346,103.510910 80.133575,101.994286 79.589523,100.265144 
z"/>
<path fill="#121212" opacity="1.000000" stroke="none" 
	d="
M71.570541,78.273666 
	C72.430313,79.486916 73.074387,80.915764 73.693466,82.685760 
	C72.897263,81.514359 72.126060,80.001816 71.570541,78.273666 
z"/>
<path fill="#121212" opacity="1.000000" stroke="none" 
	d="
M142.590546,270.215027 
	C143.092224,270.526825 143.392166,270.996826 143.657379,271.748627 
	C143.211365,271.478027 142.800079,270.925598 142.590546,270.215027 
z"/>
<path fill="#121212" opacity="1.000000" stroke="none" 
	d="
M149.580353,289.219727 
	C150.093781,289.526550 150.404694,289.993256 150.682816,290.744263 
	C150.225967,290.478943 149.801910,289.929260 149.580353,289.219727 
z"/>
<path fill="#121212" opacity="1.000000" stroke="none" 
	d="
M135.617310,251.206650 
	C136.126938,251.520294 136.430939,251.991287 136.693344,252.745270 
	C136.238388,252.473495 135.825043,251.918747 135.617310,251.206650 
z"/>
<path fill="#121212" opacity="1.000000" stroke="none" 
	d="
M133.653290,246.193451 
	C134.171295,246.510101 134.476151,246.981781 134.736420,247.739395 
	C134.274612,247.466370 133.857361,246.907440 133.653290,246.193451 
z"/>
<path fill="#121212" opacity="1.000000" stroke="none" 
	d="
M129.627838,235.202301 
	C130.136261,235.519073 130.437759,235.991760 130.693909,236.746445 
	C130.239334,236.471710 129.830109,235.914978 129.627838,235.202301 
z"/>
<path fill="#121212" opacity="1.000000" stroke="none" 
	d="
M152.665771,297.188843 
	C153.179657,297.508575 153.480133,297.982300 153.734375,298.740723 
	C153.276199,298.464569 152.864288,297.903748 152.665771,297.188843 
z"/>
<path fill="#121212" opacity="1.000000" stroke="none" 
	d="
M126.585907,227.215485 
	C127.091965,227.527542 127.394722,227.997040 127.657631,228.748627 
	C127.206062,228.478134 126.794334,227.925522 126.585907,227.215485 
z"/>
<path fill="#121212" opacity="1.000000" stroke="none" 
	d="
M119.654533,208.193176 
	C120.161171,208.512299 120.457153,208.986069 120.710953,209.743408 
	C120.260468,209.467239 119.852173,208.907516 119.654533,208.193176 
z"/>
<path fill="#121212" opacity="1.000000" stroke="none" 
	d="
M116.616669,200.206818 
	C117.123520,200.520340 117.424667,200.991074 117.688583,201.745087 
	C117.237892,201.473587 116.824432,200.918808 116.616669,200.206818 
z"/>
<path fill="#121212" opacity="1.000000" stroke="none" 
	d="
M113.600082,192.209015 
	C114.102852,192.525421 114.399567,192.996704 114.654518,193.749512 
	C114.206512,193.475342 113.800278,192.919617 113.600082,192.209015 
z"/>
<path fill="#121212" opacity="1.000000" stroke="none" 
	d="
M102.626205,162.202881 
	C103.130341,162.519165 103.428017,162.991348 103.683975,163.746216 
	C103.234741,163.472198 102.827240,162.915497 102.626205,162.202881 
z"/>
<path fill="#121212" opacity="1.000000" stroke="none" 
	d="
M99.596451,154.212570 
	C100.101166,154.525116 100.400940,154.994904 100.666550,155.747223 
	C100.218758,155.476456 99.805130,154.923126 99.596451,154.212570 
z"/>
<path fill="#121212" opacity="1.000000" stroke="none" 
	d="
M89.655396,127.193764 
	C90.174065,127.510803 90.481392,127.983452 90.738251,128.740723 
	C90.273193,128.466690 89.858620,127.908035 89.655396,127.193764 
z"/>
<path fill="#121212" opacity="1.000000" stroke="none" 
	d="
M82.558296,108.223198 
	C83.049278,108.535400 83.342644,109.004951 83.599869,109.754379 
	C83.162704,109.483025 82.761688,108.931786 82.558296,108.223198 
z"/>
<path fill="#121212" opacity="1.000000" stroke="none" 
	d="
M69.616974,73.206100 
	C70.129135,73.519539 70.434166,73.989723 70.697083,74.744003 
	C70.239929,74.473007 69.824875,73.917923 69.616974,73.206100 
z"/>
</svg>